<svg width="182" height="31" viewBox="0 0 182 31" fill="none" xmlns="http://www.w3.org/2000/svg">
<path d="M32.92 30.24H26.16L20.56 11.08H20.44L14.84 30.24H8.04L0 1.92001H7.36L11.84 20.76H11.96L17 1.92001H24.12L29.2 20.76H29.32L33.88 1.92001H41L32.92 30.24ZM54.2503 18C54.2503 16.96 53.917 16.0667 53.2503 15.32C52.6103 14.5733 51.637 14.2 50.3303 14.2C49.6903 14.2 49.1036 14.3067 48.5703 14.52C48.037 14.7067 47.5703 14.9733 47.1703 15.32C46.7703 15.6667 46.4503 16.08 46.2103 16.56C45.9703 17.0133 45.837 17.4933 45.8103 18H54.2503ZM60.2903 20.52C60.2903 20.7867 60.2903 21.0533 60.2903 21.32C60.2903 21.5867 60.277 21.84 60.2503 22.08H45.8103C45.8636 22.64 46.0236 23.1467 46.2903 23.6C46.5836 24.0533 46.9436 24.4533 47.3703 24.8C47.8236 25.12 48.317 25.3733 48.8503 25.56C49.4103 25.7467 49.9836 25.84 50.5703 25.84C51.6103 25.84 52.4903 25.6533 53.2103 25.28C53.9303 24.88 54.517 24.3733 54.9703 23.76L59.5303 26.64C58.597 28 57.357 29.0533 55.8103 29.8C54.2903 30.52 52.517 30.88 50.4903 30.88C48.997 30.88 47.5836 30.6533 46.2503 30.2C44.917 29.72 43.7436 29.04 42.7303 28.16C41.7436 27.2533 40.957 26.1467 40.3703 24.84C39.8103 23.5333 39.5303 22.04 39.5303 20.36C39.5303 18.7333 39.8103 17.2667 40.3703 15.96C40.9303 14.6267 41.6903 13.5067 42.6503 12.6C43.6103 11.6667 44.7436 10.9467 46.0503 10.44C47.357 9.93334 48.7703 9.68001 50.2903 9.68001C51.757 9.68001 53.1036 9.93334 54.3303 10.44C55.557 10.92 56.6103 11.6267 57.4903 12.56C58.3703 13.4933 59.0503 14.6267 59.5303 15.96C60.037 17.2933 60.2903 18.8133 60.2903 20.52ZM62.8384 30.24V3.8147e-06H69.4784V30.24H62.8384ZM86.7925 16.76C86.4192 16.28 85.9125 15.8933 85.2725 15.6C84.6325 15.3067 83.9792 15.16 83.3125 15.16C82.6192 15.16 81.9925 15.3067 81.4325 15.6C80.8725 15.8667 80.3925 16.24 79.9925 16.72C79.5925 17.1733 79.2725 17.7067 79.0325 18.32C78.8192 18.9333 78.7125 19.5867 78.7125 20.28C78.7125 20.9733 78.8192 21.6267 79.0325 22.24C79.2458 22.8533 79.5525 23.4 79.9525 23.88C80.3792 24.3333 80.8725 24.6933 81.4325 24.96C82.0192 25.2267 82.6725 25.36 83.3925 25.36C84.0592 25.36 84.7125 25.24 85.3525 25C86.0192 24.7333 86.5525 24.36 86.9525 23.88L90.5925 28.32C89.7658 29.12 88.6992 29.7467 87.3925 30.2C86.0858 30.6533 84.6992 30.88 83.2325 30.88C81.6592 30.88 80.1925 30.64 78.8325 30.16C77.4725 29.68 76.2858 28.9867 75.2725 28.08C74.2858 27.1467 73.4992 26.0267 72.9125 24.72C72.3525 23.4133 72.0725 21.9333 72.0725 20.28C72.0725 18.6533 72.3525 17.1867 72.9125 15.88C73.4992 14.5733 74.2858 13.4667 75.2725 12.56C76.2858 11.6267 77.4725 10.92 78.8325 10.44C80.1925 9.93334 81.6458 9.68001 83.1925 9.68001C83.9125 9.68001 84.6192 9.74667 85.3125 9.88001C86.0325 10.0133 86.7125 10.2 87.3525 10.44C88.0192 10.6533 88.6192 10.9333 89.1525 11.28C89.7125 11.6 90.1925 11.96 90.5925 12.36L86.7925 16.76ZM112.71 20.2C112.71 21.8267 112.416 23.3067 111.83 24.64C111.243 25.9467 110.443 27.0667 109.43 28C108.416 28.9067 107.243 29.6133 105.91 30.12C104.576 30.6267 103.15 30.88 101.63 30.88C100.136 30.88 98.7097 30.6267 97.3497 30.12C96.0164 29.6133 94.843 28.9067 93.8297 28C92.843 27.0667 92.0564 25.9467 91.4697 24.64C90.883 23.3067 90.5897 21.8267 90.5897 20.2C90.5897 18.5733 90.883 17.1067 91.4697 15.8C92.0564 14.4933 92.843 13.3867 93.8297 12.48C94.843 11.5733 96.0164 10.88 97.3497 10.4C98.7097 9.92001 100.136 9.68001 101.63 9.68001C103.15 9.68001 104.576 9.92001 105.91 10.4C107.243 10.88 108.416 11.5733 109.43 12.48C110.443 13.3867 111.243 14.4933 111.83 15.8C112.416 17.1067 112.71 18.5733 112.71 20.2ZM106.39 20.2C106.39 19.56 106.283 18.9333 106.07 18.32C105.856 17.7067 105.55 17.1733 105.15 16.72C104.75 16.24 104.256 15.8533 103.67 15.56C103.083 15.2667 102.403 15.12 101.63 15.12C100.856 15.12 100.176 15.2667 99.5897 15.56C99.003 15.8533 98.5097 16.24 98.1097 16.72C97.7364 17.1733 97.443 17.7067 97.2297 18.32C97.043 18.9333 96.9497 19.56 96.9497 20.2C96.9497 20.84 97.043 21.4667 97.2297 22.08C97.443 22.6933 97.7497 23.2533 98.1497 23.76C98.5497 24.24 99.043 24.6267 99.6297 24.92C100.216 25.2133 100.896 25.36 101.67 25.36C102.443 25.36 103.123 25.2133 103.71 24.92C104.296 24.6267 104.79 24.24 105.19 23.76C105.59 23.2533 105.883 22.6933 106.07 22.08C106.283 21.4667 106.39 20.84 106.39 20.2ZM140.703 30.24V19.36C140.703 18.8 140.663 18.2667 140.583 17.76C140.503 17.2267 140.356 16.7733 140.143 16.4C139.93 16.0267 139.636 15.7333 139.263 15.52C138.916 15.28 138.45 15.16 137.863 15.16C137.303 15.16 136.81 15.28 136.383 15.52C135.983 15.76 135.636 16.08 135.343 16.48C135.076 16.88 134.876 17.3467 134.743 17.88C134.61 18.3867 134.543 18.92 134.543 19.48V30.24H127.983V18.88C127.983 17.7333 127.756 16.8267 127.303 16.16C126.85 15.4933 126.13 15.16 125.143 15.16C124.103 15.16 123.29 15.5733 122.703 16.4C122.143 17.2267 121.863 18.24 121.863 19.44V30.24H115.263V10.32H121.623V13.08H121.703C121.943 12.6533 122.236 12.24 122.583 11.84C122.956 11.44 123.396 11.0933 123.903 10.8C124.41 10.48 124.97 10.2267 125.583 10.04C126.223 9.85334 126.916 9.76 127.663 9.76C129.103 9.76 130.316 10.0533 131.303 10.64C132.316 11.2267 133.103 12.0667 133.663 13.16C134.33 12.12 135.183 11.2933 136.223 10.68C137.263 10.0667 138.53 9.76 140.023 9.76C141.383 9.76 142.516 10.0133 143.423 10.52C144.356 11 145.103 11.64 145.663 12.44C146.223 13.2133 146.623 14.0933 146.863 15.08C147.13 16.04 147.263 16.9867 147.263 17.92V30.24H140.703ZM164.336 18C164.336 16.96 164.003 16.0667 163.336 15.32C162.696 14.5733 161.723 14.2 160.416 14.2C159.776 14.2 159.19 14.3067 158.656 14.52C158.123 14.7067 157.656 14.9733 157.256 15.32C156.856 15.6667 156.536 16.08 156.296 16.56C156.056 17.0133 155.923 17.4933 155.896 18H164.336ZM170.376 20.52C170.376 20.7867 170.376 21.0533 170.376 21.32C170.376 21.5867 170.363 21.84 170.336 22.08H155.896C155.95 22.64 156.11 23.1467 156.376 23.6C156.67 24.0533 157.03 24.4533 157.456 24.8C157.91 25.12 158.403 25.3733 158.936 25.56C159.496 25.7467 160.07 25.84 160.656 25.84C161.696 25.84 162.576 25.6533 163.296 25.28C164.016 24.88 164.603 24.3733 165.056 23.76L169.616 26.64C168.683 28 167.443 29.0533 165.896 29.8C164.376 30.52 162.603 30.88 160.576 30.88C159.083 30.88 157.67 30.6533 156.336 30.2C155.003 29.72 153.83 29.04 152.816 28.16C151.83 27.2533 151.043 26.1467 150.456 24.84C149.896 23.5333 149.616 22.04 149.616 20.36C149.616 18.7333 149.896 17.2667 150.456 15.96C151.016 14.6267 151.776 13.5067 152.736 12.6C153.696 11.6667 154.83 10.9467 156.136 10.44C157.443 9.93334 158.856 9.68001 160.376 9.68001C161.843 9.68001 163.19 9.93334 164.416 10.44C165.643 10.92 166.696 11.6267 167.576 12.56C168.456 13.4933 169.136 14.6267 169.616 15.96C170.123 17.2933 170.376 18.8133 170.376 20.52ZM174.044 20.76V1.92001H180.764V20.76H174.044ZM181.324 26.84C181.324 27.3733 181.218 27.88 181.004 28.36C180.818 28.8133 180.538 29.2133 180.164 29.56C179.818 29.88 179.404 30.1333 178.924 30.32C178.444 30.5333 177.938 30.64 177.404 30.64C176.871 30.64 176.364 30.5467 175.884 30.36C175.431 30.1733 175.031 29.9067 174.684 29.56C174.338 29.2133 174.058 28.8133 173.844 28.36C173.631 27.9067 173.524 27.4133 173.524 26.88C173.524 26.3733 173.618 25.8933 173.804 25.44C174.018 24.96 174.298 24.5467 174.644 24.2C174.991 23.8533 175.404 23.5867 175.884 23.4C176.364 23.1867 176.871 23.08 177.404 23.08C177.938 23.08 178.444 23.1867 178.924 23.4C179.404 23.5867 179.818 23.8533 180.164 24.2C180.538 24.52 180.818 24.92 181.004 25.4C181.218 25.8533 181.324 26.3333 181.324 26.84Z" fill="#213F7D"/>
</svg>
